<svg xmlns="http://www.w3.org/2000/svg" viewBox="0 0 1600 620"><defs><linearGradient id="b1" x1="0" y1="0" x2="1" y2="1"><stop stop-color="#07070b"/><stop offset="1" stop-color="#11152a"/></linearGradient><linearGradient id="e1" x1="0" y1="0" x2="1" y2="1"><stop stop-color="#ff1493"/><stop offset=".5" stop-color="#1493ff"/><stop offset="1" stop-color="#93ff14"/></linearGradient><radialGradient id="g1"><stop stop-color="#1493ff" stop-opacity=".5"/><stop offset="1" stop-opacity="0"/></radialGradient><filter id="s1"><feDropShadow dx="0" dy="16" stdDeviation="15" flood-opacity=".75"/></filter></defs><rect width="1600" height="620" fill="url(#b1)"/><ellipse cx="800" cy="300" rx="420" ry="300" fill="url(#g1)"/><g transform="translate(135 110)"><path d="M0 160h1330v54H0zM0 390h1330v54H0z" fill="#181824" stroke="#36364b" stroke-width="3"/><path d="M46 0h35v444H46zM1247 0h35v444h-35z" fill="#222234"/><g stroke="#414159" stroke-width="2"><path d="M105 40h75v120h-75z" fill="#202837"/><path d="M190 65h56v95h-56z" fill="#2c1c31"/><path d="M257 15h95v145h-95z" fill="#172925"/><path d="M365 55h58v105h-58z" fill="#272336"/><path d="M435 24h92v136h-92z" fill="#1d2939"/><path d="M715 34h75v126h-75z" fill="#2b1d31"/><path d="M802 8h87v152h-87z" fill="#16292f"/><path d="M900 52h58v108h-58z" fill="#292238"/><path d="M970 30h93v130h-93z" fill="#1f2b35"/><path d="M1080 70h55v90h-55z" fill="#2a1c2d"/><path d="M1148 20h70v140h-70z" fill="#1c2932"/><path d="M105 250h65v140h-65z" fill="#231e34"/><path d="M182 280h80v110h-80z" fill="#172d30"/><path d="M278 230h88v160h-88z" fill="#2c1d30"/><path d="M380 270h55v120h-55z" fill="#1e2938"/><path d="M450 245h100v145h-100z" fill="#182925"/><path d="M570 290h60v100h-60z" fill="#2c1b2f"/><path d="M820 245h85v145h-85z" fill="#1c2935"/><path d="M920 280h60v110h-60z" fill="#2a1c31"/><path d="M995 230h95v160h-95z" fill="#182c2c"/><path d="M1105 265h55v125h-55z" fill="#2b1f33"/><path d="M1170 240h55v150h-55z" fill="#1b2935"/></g><rect x="565" y="-1" width="132" height="161" rx="8" fill="#050508" stroke="url(#e1)" stroke-width="6"/><rect x="644" y="229" width="160" height="161" rx="8" fill="#050508" stroke="url(#e1)" stroke-width="6"/><g fill="#f6f5eb" opacity=".82"><path d="M620 85l-36-54 71 17z"/><path d="M736 287l64-32-17 70z"/><path d="M676 435l53-34 11 65z"/></g></g></svg>